<?xml version="1.0" encoding="utf-8"?>
<!-- Generator: Adobe Illustrator 16.0.0, SVG Export Plug-In . SVG Version: 6.00 Build 0)  -->
<!DOCTYPE svg PUBLIC "-//W3C//DTD SVG 1.1//EN" "http://www.w3.org/Graphics/SVG/1.1/DTD/svg11.dtd">
<svg version="1.1" id="Layer_1" xmlns="http://www.w3.org/2000/svg" xmlns:xlink="http://www.w3.org/1999/xlink" x="0px" y="0px"
	 width="1600px" height="24px" viewBox="0 0 1600 24" enable-background="new 0 0 1600 24" xml:space="preserve">
<path fill="#ED1C24" d="M338.86,0h-0.742h-1.974h-0.742h0.98c1.225,1.863,2.506,3.68,3.837,5.375c0,0.002,0.001,0.003,0.002,0.006
	c0.002,0.002,0.003,0.005,0.005,0.007c0.409,0.555,0.688,1.083,0.868,1.581c0.237,0.655,0.299,1.255,0.261,1.785
	c-0.029,0.406-0.117,0.767-0.231,1.084c-0.039,0.104-0.08,0.204-0.122,0.298c-0.214,0.473-0.471,0.813-0.629,0.996
	c0,0-0.894,1.094-2.307,3.113c-0.075,0.108-0.151,0.216-0.228,0.328c-0.198,0.285-0.406,0.593-0.622,0.91
	c-0.339,0.501-0.697,1.044-1.073,1.625c-0.344,0.537-0.7,1.096-1.07,1.693c-0.292,0.47-0.593,0.969-0.896,1.479
	c-0.374,0.627-0.754,1.273-1.144,1.959c-0.235,0.414-0.473,0.837-0.712,1.271c-0.088,0.16-0.176,0.326-0.264,0.488h1.604h0.742
	h14.43H1600V0H338.86z"/>
<path fill="#F47920" d="M341.297,6.969c-0.165-0.498-0.42-1.024-0.795-1.581c-0.002-0.002-0.003-0.005-0.005-0.007
	c0-0.003-0.002-0.004-0.003-0.006h-0.001c-1.219-1.697-2.395-3.513-3.517-5.376h-0.899h-29.083c1.124,1.863,2.298,3.679,3.519,5.376
	c0.002,0.002,0.003,0.003,0.003,0.006c0.002,0.002,0.003,0.005,0.005,0.007c0.375,0.557,0.629,1.083,0.794,1.581
	c0.219,0.656,0.276,1.258,0.241,1.786c-0.027,0.405-0.107,0.767-0.212,1.085c-0.035,0.105-0.074,0.203-0.112,0.296
	c-0.196,0.475-0.432,0.813-0.576,0.998c0,0-0.821,1.093-2.116,3.111c-0.068,0.107-0.138,0.218-0.208,0.327
	c-0.182,0.285-0.373,0.593-0.57,0.911c-0.311,0.505-0.64,1.043-0.984,1.625c-0.316,0.536-0.642,1.096-0.981,1.694
	c-0.267,0.471-0.543,0.968-0.822,1.479c-0.343,0.626-0.691,1.275-1.049,1.958c-0.216,0.417-0.433,0.839-0.653,1.274
	c-0.08,0.157-0.162,0.325-0.242,0.485h-0.083h30.064c0.081-0.16,0.163-0.328,0.244-0.485c0.22-0.436,0.437-0.857,0.653-1.274
	c0.357-0.683,0.706-1.332,1.049-1.958c0.279-0.511,0.554-1.008,0.821-1.479c0.34-0.599,0.667-1.158,0.983-1.694
	c0.345-0.582,0.673-1.12,0.984-1.625c0.198-0.318,0.389-0.626,0.569-0.911c0.072-0.109,0.142-0.22,0.21-0.327
	c1.294-2.018,2.116-3.111,2.116-3.111c0.145-0.186,0.381-0.523,0.577-0.998c0.039-0.094,0.076-0.191,0.111-0.296
	c0.106-0.319,0.187-0.681,0.212-1.085C341.571,8.227,341.514,7.625,341.297,6.969"/>
<path fill="#FFC20E" d="M282.76,5.376L282.76,5.376c-0.797-1.881-1.496-3.668-2.124-5.376H0v24h277.84
	c2.497-7.455,4.825-12.368,4.825-12.368c0.129-0.328,0.204-0.521,0.204-0.521c0.328-0.616,1.253-2.792-0.104-5.723
	C282.763,5.385,282.761,5.381,282.76,5.376"/>
<path fill="#F99D1C" d="M304.873,22.24c0.356-0.686,0.706-1.332,1.049-1.959c0.279-0.511,0.554-1.01,0.822-1.479
	c0.339-0.598,0.665-1.157,0.981-1.692c0.345-0.582,0.673-1.125,0.984-1.626c0.198-0.317,0.388-0.624,0.57-0.91
	c0.071-0.112,0.141-0.22,0.208-0.328c1.295-2.019,2.116-3.113,2.116-3.113c0.145-0.184,0.38-0.523,0.576-0.996
	c0.039-0.094,0.077-0.194,0.112-0.298c0.105-0.317,0.185-0.678,0.212-1.084c0.035-0.529-0.022-1.129-0.241-1.785
	c-0.164-0.499-0.419-1.026-0.794-1.581c-0.001-0.002-0.002-0.005-0.003-0.007c-0.002-0.003-0.003-0.004-0.004-0.006
	c-1.22-1.696-2.396-3.512-3.519-5.375h-0.218H278.63c0.861,1.708,1.818,3.494,2.911,5.375h0.001
	c0.003,0.005,0.004,0.009,0.009,0.013c1.858,2.93,0.591,5.107,0.141,5.722c0,0-0.103,0.193-0.279,0.521
	c0,0-3.192,4.916-6.613,12.369h29.094h0.083c0.081-0.162,0.163-0.328,0.242-0.488C304.439,23.077,304.657,22.654,304.873,22.24"/>
</svg>
