<?xml version="1.0" encoding="utf-8"?>
<!-- Generator: Adobe Illustrator 22.1.0, SVG Export Plug-In . SVG Version: 6.00 Build 0)  -->
<svg version="1.1" id="Layer_1" xmlns="http://www.w3.org/2000/svg" xmlns:xlink="http://www.w3.org/1999/xlink" x="0px" y="0px"
	 width="50px" height="50px" viewBox="0 0 50 50" style="enable-background:new 0 0 50 50;" xml:space="preserve">
<style type="text/css">
	.st0{fill:#FF8A00;}
	.st1{fill:none;stroke:#FF8A00;stroke-miterlimit:10;}
</style>
<path class="st0" d="M34.5,31L34.5,31c0,0-2.5-1.6-3.6-2.4c-0.4-0.3-0.9-0.4-1.2-0.4c-0.6,0-1,0.3-1,0.3l0,0c0,0-0.2,0.2-0.7,0.6
	c-0.5,0.4-1.1,0.3-1.5-0.2c-0.7-0.6-4.2-5-5.3-6.5c-0.2-0.3-0.3-0.6-0.3-0.9c0.1-0.6,0.8-1,1.1-1.2l0.1-0.1c0.7-0.5,0.8-1.3,0.6-1.9
	c-0.2-0.4-1.5-3.5-1.7-3.8c-0.3-0.2-0.6-0.7-1.3-0.7c-0.5,0-1.6,0.2-2.4,0.8L17,14.6c-0.7,0.5-2,1.3-2,3.2c0,2.4,1.7,5.9,5.4,10.8
	c3.8,5.2,8.4,7.7,10.4,7.7c1.7,0,3.5-2.1,3.9-3.2C35.3,32.1,34.9,31.3,34.5,31z"/>
<circle class="st1" cx="25" cy="25" r="21"/>
</svg>
