<?xml version="1.0" encoding="utf-8"?>
<!-- Generator: Adobe Illustrator 16.0.0, SVG Export Plug-In . SVG Version: 6.00 Build 0)  -->
<!DOCTYPE svg PUBLIC "-//W3C//DTD SVG 1.1//EN" "http://www.w3.org/Graphics/SVG/1.1/DTD/svg11.dtd">
<svg version="1.1" id="Layer_1" xmlns="http://www.w3.org/2000/svg" xmlns:xlink="http://www.w3.org/1999/xlink" x="0px" y="0px"
	 width="400px" height="400px" viewBox="0 0 400 400" enable-background="new 0 0 400 400" xml:space="preserve">
<g>
	<defs>
		<rect id="SVGID_1_" x="9.667" y="0.182" width="382" height="399.637"/>
	</defs>
	<clipPath id="SVGID_2_">
		<use xlink:href="#SVGID_1_"  overflow="visible"/>
	</clipPath>
	<path clip-path="url(#SVGID_2_)" d="M261.401,257.801c15.284,0.623,36.405-35.997,21.116-57.295
		c-40.681-35.138-138.322-34.01-161.659-74.877c-4.011-7.088-1.939-24.792,11.55-35.888c7.397-6.217,14.517-10.817,21.512-14.05
		c11.548-5.501,27.223-8.364,47.076-8.364c34.848,0,63.644,12.337,86.188,36.876c22.682,24.666,33.845,56.559,33.845,95.549
		c0,38.854-11.163,70.761-33.845,95.679c-22.544,24.901-51.34,37.243-86.188,37.243c-37.483,0-63.532-12.695-84.535-31.266
		c-21.389-18.79-37.311-52.699-38.996-88.073l-67.798,0.488c0.238,3.755,0.238,15.321,0.772,18.941
		c3.749,29.396,13.063,56.184,28.105,80.227c16.859,26.905,39.563,48.086,67.93,63.66c28.515,15.456,60.039,23.167,94.398,23.167
		c25.142,0,49.234-4.983,72.447-14.698s43.804-23.538,61.572-41.485c17.895-18.066,31.901-39.112,41.732-63.407
		c9.984-24.413,15.043-51.083,15.043-80.223c0-29.157-5.059-55.818-14.898-80.101c-9.864-24.042-23.847-45.337-42.013-63.782
		c-18.13-18.184-38.762-32.137-61.572-41.604c-22.802-9.483-46.916-14.336-72.312-14.336c-41.995,0-77.793,10.586-107.337,31.775
		C80.556,41.293,67.486,51.5,57.737,65.214c-44.19,62.414-28.392,114.237,109.285,150.242
		C197.091,223.42,236.251,239.499,261.401,257.801"/>
</g>
</svg>
