<?xml version="1.0" encoding="utf-8"?>
<!-- Generator: Adobe Illustrator 23.0.4, SVG Export Plug-In . SVG Version: 6.00 Build 0)  -->
<svg version="1.1" id="Layer_1" xmlns="http://www.w3.org/2000/svg" xmlns:xlink="http://www.w3.org/1999/xlink" x="0px" y="0px"
	 width="80px" height="60px" viewBox="0 0 80 60" style="enable-background:new 0 0 80 60;" xml:space="preserve">
<g>
	<g>
		<path style="fill:#012E26;" d="M25.4,52.3c0.2-0.1,0.3-0.4,0.3-0.6c0-0.3-0.1-0.5-0.2-0.7c-0.2-0.2-0.4-0.3-0.7-0.3
			c-0.2,0-0.4,0-0.5,0.1c0,0.3,0,0.8,0,1.5v0c0.2-0.2,0.4-0.2,0.6-0.2C25,52.1,25.2,52.1,25.4,52.3 M27.5,53.7c0,0-0.1,0.1-0.1,0.1
			c0,0-0.1,0.1-0.2,0.1c-0.1,0-0.2,0.1-0.3,0.1c-0.4,0-0.7-0.2-1-0.5c-0.1-0.1-0.2-0.2-0.3-0.3c-0.1-0.1-0.2-0.2-0.2-0.3
			c-0.1-0.1-0.1-0.2-0.2-0.3c-0.1-0.1-0.2-0.2-0.2-0.2c-0.1,0-0.2-0.1-0.3-0.1c-0.2,0-0.4,0-0.5,0.1l0,1.1c0,0.1,0,0.2,0.1,0.2
			c0,0,0.1,0.1,0.2,0.1l0.1,0v0.1c-0.2,0-0.5,0-0.6,0l-0.6,0v-0.1c0,0,0,0,0.1,0c0.1,0,0.1,0,0.2,0c0,0,0.1,0,0.1-0.1
			c0,0,0-0.1,0-0.2c0-0.2,0-0.6,0-1.2l0-1.2c0-0.1,0-0.2-0.1-0.3c0-0.1-0.1-0.1-0.2-0.1l-0.1,0v-0.1c0.3,0,0.4,0,0.6,0h0
			c0.1,0,0.2,0,0.4,0c0.2,0,0.4,0,0.5,0c0.4,0,0.7,0.1,1,0.3c0.2,0.2,0.3,0.4,0.3,0.8c0,0.2-0.1,0.3-0.2,0.5
			c-0.1,0.1-0.3,0.2-0.4,0.3c0.1,0.1,0.2,0.2,0.3,0.4c0.2,0.4,0.4,0.6,0.6,0.8c0.2,0.2,0.4,0.3,0.6,0.3
			C27.3,53.8,27.4,53.8,27.5,53.7L27.5,53.7z"/>
		<path style="fill:#012E26;" d="M33,53l-0.3,0.8l-1.8,0l-0.8,0v-0.1c0,0,0.1,0,0.1,0c0.1,0,0.2,0,0.2-0.1c0,0,0.1-0.1,0.1-0.2
			c0-0.1,0-0.3,0-0.6c0-0.3,0-0.6,0-0.8c0-0.2,0-0.4,0-0.6V51c0-0.1,0-0.2-0.1-0.2c0,0-0.1-0.1-0.2-0.1l-0.1,0v-0.1
			c0.2,0,0.4,0,0.8,0l1.6,0l0.2,0.7l-0.1,0l0,0c0,0,0,0,0-0.1c0,0,0,0-0.1-0.1c0,0-0.1-0.1-0.1-0.1c0,0-0.1-0.1-0.1-0.1
			c0,0-0.1-0.1-0.1-0.1c0,0-0.1-0.1-0.2-0.1c-0.1,0-0.1,0-0.2-0.1c-0.1,0-0.1,0-0.2,0c-0.1,0-0.2,0-0.3,0l-0.4,0v1.5h0.4
			c0.3,0,0.5-0.2,0.5-0.4l0-0.1H32l0,0.6l0,0.5h-0.1c0,0,0,0,0-0.1c0-0.3-0.2-0.4-0.5-0.4H31v1.5h0.5c0.1,0,0.2,0,0.4,0
			c0.1,0,0.2,0,0.3-0.1c0.1,0,0.2-0.1,0.2-0.1s0.1-0.1,0.2-0.1c0,0,0.1-0.1,0.1-0.1c0-0.1,0.1-0.1,0.1-0.1c0,0,0-0.1,0.1-0.1
			C32.9,53.1,32.9,53,33,53L33,53z"/>
		<path style="fill:#012E26;" d="M36.6,53.8c-0.2-0.1-0.3-0.1-0.4-0.2c-0.1,0-0.1-0.1-0.2-0.1l0.1-0.7h0.1c0,0.3,0.2,0.5,0.4,0.7
			c0.2,0.2,0.4,0.3,0.7,0.3c0.3,0,0.5,0,0.6-0.2c0.1-0.1,0.2-0.3,0.2-0.5c0-0.2-0.1-0.4-0.3-0.5c-0.2-0.1-0.4-0.3-0.8-0.4
			c-0.3-0.1-0.5-0.3-0.7-0.4c-0.1-0.2-0.2-0.4-0.1-0.6c0-0.2,0.1-0.4,0.3-0.6c0.2-0.1,0.4-0.2,0.8-0.2c0.2,0,0.4,0,0.6,0.1
			c0.2,0.1,0.3,0.2,0.4,0.3l-0.1,0.6h-0.1c-0.1-0.2-0.2-0.4-0.3-0.6c-0.1-0.2-0.3-0.2-0.6-0.2c-0.2,0-0.4,0-0.5,0.2
			c-0.1,0.1-0.2,0.3-0.2,0.4c0,0.1,0,0.1,0,0.1c0,0,0,0.1,0.1,0.2c0,0.1,0.1,0.1,0.2,0.2c0.1,0.1,0.2,0.1,0.3,0.2
			c0.4,0.2,0.6,0.3,0.8,0.4c0.2,0.1,0.3,0.2,0.4,0.4c0.1,0.2,0.1,0.4,0,0.6c-0.1,0.3-0.2,0.4-0.5,0.6S37.5,54,37.1,54
			C36.9,53.9,36.8,53.9,36.6,53.8"/>
		<path style="fill:#012E26;" d="M44.1,53.4c0.2-0.3,0.3-0.7,0.4-1.2c0-0.5-0.1-0.8-0.3-1.1c-0.2-0.3-0.5-0.5-0.9-0.5
			c-0.4,0-0.7,0.2-0.9,0.5c-0.2,0.3-0.3,0.7-0.3,1.1c0,0.4,0.1,0.8,0.3,1.1c0.2,0.3,0.5,0.5,0.9,0.5C43.6,53.9,43.9,53.7,44.1,53.4
			 M41.9,53.5c-0.3-0.3-0.5-0.7-0.5-1.2c0-0.5,0.2-0.9,0.5-1.2c0.3-0.3,0.7-0.5,1.3-0.5c0.5,0,1,0.2,1.3,0.5
			c0.3,0.3,0.5,0.7,0.5,1.2c0,0.5-0.2,0.9-0.5,1.2c-0.3,0.3-0.8,0.5-1.3,0.5C42.7,54,42.3,53.8,41.9,53.5"/>
		<path style="fill:#012E26;" d="M49.6,52.3c0.2-0.1,0.3-0.4,0.3-0.6c0-0.3-0.1-0.5-0.2-0.7c-0.2-0.2-0.4-0.3-0.7-0.3
			c-0.2,0-0.4,0-0.5,0.1c0,0.3,0,0.8,0,1.5v0c0.2-0.2,0.4-0.2,0.6-0.2C49.3,52.1,49.5,52.1,49.6,52.3 M51.8,53.7
			c0,0-0.1,0.1-0.1,0.1c0,0-0.1,0.1-0.2,0.1c-0.1,0-0.2,0.1-0.3,0.1c-0.4,0-0.7-0.2-1-0.5c-0.1-0.1-0.2-0.2-0.3-0.3
			c-0.1-0.1-0.2-0.2-0.2-0.3c-0.1-0.1-0.1-0.2-0.2-0.3c-0.1-0.1-0.2-0.2-0.2-0.2c-0.1,0-0.2-0.1-0.3-0.1c-0.2,0-0.4,0-0.5,0.1l0,1.1
			c0,0.1,0,0.2,0.1,0.2c0,0,0.1,0.1,0.2,0.1l0.1,0v0.1c-0.2,0-0.5,0-0.6,0l-0.6,0v-0.1c0,0,0,0,0.1,0c0.1,0,0.1,0,0.2,0
			c0,0,0.1,0,0.1-0.1c0,0,0-0.1,0-0.2c0-0.2,0-0.6,0-1.2l0-1.2c0-0.1,0-0.2-0.1-0.3c0-0.1-0.1-0.1-0.2-0.1l-0.1,0v-0.1
			c0.3,0,0.4,0,0.6,0h0c0.1,0,0.2,0,0.4,0c0.2,0,0.4,0,0.5,0c0.4,0,0.7,0.1,1,0.3c0.2,0.2,0.3,0.4,0.3,0.8c0,0.2-0.1,0.3-0.2,0.5
			c-0.1,0.1-0.3,0.2-0.4,0.3c0.1,0.1,0.2,0.2,0.3,0.4c0.2,0.4,0.4,0.6,0.6,0.8c0.2,0.2,0.4,0.3,0.6,0.3
			C51.5,53.8,51.7,53.8,51.8,53.7L51.8,53.7z"/>
		<path style="fill:#012E26;" d="M56.9,51.3L56.9,51.3c-0.2-0.2-0.3-0.4-0.5-0.5s-0.4-0.2-0.6-0.2h-0.1v0.1v0.2c0,0.1,0,0.2,0,0.3
			c0,0.1,0,0.2,0,0.4v0.5l0,1.4c0,0.1,0,0.2,0.1,0.3c0,0,0.1,0.1,0.2,0.1l0.1,0v0.1c-0.2,0-0.5,0-0.6,0l-0.6,0v-0.1c0,0,0.1,0,0.1,0
			c0.1,0,0.2,0,0.2-0.1c0,0,0.1-0.1,0.1-0.3c0-0.2,0-0.7,0-1.4c0-0.8,0-1.3,0-1.4H55c-0.3,0-0.5,0.1-0.7,0.2
			c-0.2,0.1-0.3,0.3-0.5,0.5l-0.1,0l0.2-0.7h2.6L56.9,51.3z"/>
	</g>
	<g>
		<path style="fill:#012E26;" d="M50.2,27.2c-1.4,0-2-0.4-2.7-0.7c-0.6-0.3-1.2-0.6-2.3-0.6c-1.2,0-1.7,0.3-2.3,0.6
			c-0.7,0.3-1.3,0.7-2.7,0.7h0h0c-1.4,0-2-0.4-2.7-0.7c-0.6-0.3-1.2-0.6-2.3-0.6c-1.2,0-1.7,0.3-2.3,0.6c-0.7,0.3-1.3,0.7-2.7,0.7
			c-1.2,0-1.9-0.3-2.5-0.6c-0.2-0.1-0.3-0.3-0.2-0.5c0.1-0.2,0.3-0.3,0.5-0.2c0.5,0.3,1.1,0.5,2.1,0.5c1.2,0,1.7-0.3,2.3-0.6
			c0.7-0.3,1.3-0.7,2.7-0.7c1.4,0,2,0.4,2.7,0.7c0.6,0.3,1.2,0.6,2.3,0.6s1.7-0.3,2.3-0.6c0.7-0.3,1.3-0.7,2.7-0.7
			c1.4,0,2,0.4,2.7,0.7c0.6,0.3,1.2,0.6,2.3,0.6c1,0,1.6-0.2,2.1-0.5c0.2-0.1,0.4,0,0.5,0.2c0.1,0.2,0,0.4-0.2,0.5
			C52.1,26.9,51.4,27.2,50.2,27.2"/>
		<path style="fill:#012E26;" d="M50.2,29.9c-1.4,0-2-0.4-2.7-0.7c-0.6-0.3-1.2-0.6-2.3-0.6c-1.2,0-1.7,0.3-2.3,0.6
			c-0.7,0.3-1.3,0.7-2.7,0.7h0h0c-1.4,0-2-0.4-2.7-0.7c-0.6-0.3-1.2-0.6-2.3-0.6c-1.2,0-1.7,0.3-2.3,0.6c-0.7,0.3-1.3,0.7-2.7,0.7
			c-1.2,0-1.9-0.3-2.5-0.6c-0.2-0.1-0.3-0.3-0.2-0.5c0.1-0.2,0.3-0.3,0.5-0.2c0.5,0.3,1.1,0.5,2.1,0.5c1.2,0,1.7-0.3,2.3-0.6
			c0.7-0.3,1.3-0.7,2.7-0.7c1.4,0,2,0.4,2.7,0.7c0.6,0.3,1.2,0.6,2.3,0.6s1.7-0.3,2.3-0.6c0.7-0.3,1.3-0.7,2.7-0.7
			c1.4,0,2,0.4,2.7,0.7c0.6,0.3,1.2,0.6,2.3,0.6c1,0,1.6-0.2,2.1-0.5c0.2-0.1,0.4,0,0.5,0.2c0.1,0.2,0,0.4-0.2,0.5
			C52.1,29.6,51.4,29.9,50.2,29.9"/>
		<g>
			<path style="fill:#012E26;" d="M40.4,11.2c-0.1,0.2-0.4,0.2-0.5,0l-0.3-0.7l-0.8-0.3c-0.2-0.1-0.2-0.4,0-0.5l0.8-0.3l0.3-0.7
				c0.1-0.2,0.4-0.2,0.5,0l0.3,0.7l0.8,0.3c0.2,0.1,0.2,0.4,0,0.5l-0.8,0.3L40.4,11.2z M43.1,9.9l-1.9-1L40.1,7L39,8.9l-1.9,1l1.9,1
				l0.7,1.2v14.5c0,0.2,0.2,0.4,0.4,0.4s0.4-0.2,0.4-0.4V12.1l0.7-1.2L43.1,9.9z"/>
			<path style="fill:#012E26;" d="M30,26.6h0.7c0,0,0-7.1,0-7.1c0-1.1,0.3-1.8,0.9-2.3l0-0.1c-0.5,0.1-0.9,0.4-1.2,0.8
				c-0.3,0.4-0.4,0.9-0.4,1.6C30,19.5,30,26.5,30,26.6"/>
			<path style="fill:#012E26;" d="M28.1,19.1c0-0.4,0-0.9-0.1-1.3c-0.1-0.6-0.4-1.2-0.9-1.6c-0.4-0.3-0.8-0.5-1.3-0.6
				c-0.6-0.1-1.3,0.1-1.7,0.5c-0.5,0.4-0.8,1.1-0.6,1.7c0.1,0.6,0.7,1.1,1.3,1.2c0.2,0.1,0.5,0.1,0.7-0.1c0.3-0.2,0.4-0.5,0.3-0.8
				c-0.1-0.3-0.5-0.5-0.8-0.4c-0.3,0.1-0.6,0.4-0.6,0.7c-0.5-0.3-0.7-1.1-0.4-1.6c0.3-0.5,0.9-0.8,1.5-0.8c0.4,0,0.8,0.2,1,0.4
				c0.4,0.3,0.6,0.8,0.7,1.3c0.1,0.5,0.1,1,0.1,1.5c0,3.3,0,6.5,0,9.8c0,0.3,0.1,0.4,0.3,0.5c0.2,0,0.3-0.1,0.4-0.2
				c0.1-0.1,0.1-0.2,0.1-0.3c0-3.1,0-6.1,0-9.2C28.1,19.4,28.1,19.2,28.1,19.1"/>
			<path style="fill:#012E26;" d="M34.3,21.3l-0.3,0.6c-0.1,0.1-0.3,0.1-0.3,0l-0.3-0.6l-0.6-0.3c-0.1-0.1-0.1-0.3,0-0.3l0.6-0.3
				l0.3-0.6c0.1-0.1,0.3-0.1,0.3,0l0.3,0.6l0.6,0.3c0.1,0.1,0.1,0.3,0,0.3L34.3,21.3z M36.2,20.9l-1.5-0.8l-0.8-1.4l-0.8,1.4
				l-1.5,0.8l1.5,0.8l0.4,0.8v3.1c0,0.2,0.2,0.4,0.4,0.4c0.2,0,0.4-0.2,0.4-0.4v-3.1l0.4-0.8L36.2,20.9z"/>
			<path style="fill:#012E26;" d="M34.3,11.8c-0.8,0-1.5,0.3-2,0.8c-0.5,0.5-0.8,1.2-0.8,1.9c0,1.1,1,2.1,2.1,2.2c0.1,0,0.1,0,0.2,0
				c0.5-0.1,0.8-0.5,0.8-1c-0.1-0.5-0.5-0.8-1-0.7c-0.4,0.1-0.7,0.4-0.8,0.8c-0.5-0.3-0.8-0.8-0.8-1.4c0-0.6,0.2-1.1,0.7-1.5
				c0.4-0.4,1-0.6,1.6-0.6c1.7,0,2.8,1.3,2.8,3.3l0,10.7c0,0.2,0.2,0.4,0.4,0.4c0.2,0,0.4-0.2,0.4-0.4V15.9
				C37.8,13.5,36.4,11.8,34.3,11.8"/>
			<path style="fill:#012E26;" d="M50.2,26.6h-0.7c0,0,0-7.1,0-7.1c0-1.1-0.3-1.8-0.9-2.3l0-0.1c0.5,0.1,0.9,0.4,1.2,0.8
				c0.3,0.4,0.4,0.9,0.4,1.6C50.2,19.5,50.2,26.5,50.2,26.6"/>
			<path style="fill:#012E26;" d="M52.1,19.1c0-0.4,0-0.9,0.1-1.3c0.1-0.6,0.4-1.2,0.9-1.6c0.4-0.3,0.8-0.5,1.3-0.6
				c0.6-0.1,1.3,0.1,1.7,0.5c0.5,0.4,0.8,1.1,0.6,1.7c-0.1,0.6-0.7,1.1-1.3,1.2C55.3,19,55,19,54.8,18.9c-0.3-0.2-0.4-0.5-0.3-0.8
				c0.1-0.3,0.5-0.5,0.8-0.4c0.3,0.1,0.6,0.4,0.6,0.7c0.5-0.3,0.7-1.1,0.4-1.6c-0.3-0.5-0.9-0.8-1.5-0.8c-0.4,0-0.8,0.2-1,0.4
				c-0.4,0.3-0.6,0.8-0.7,1.3c-0.1,0.5-0.1,1-0.1,1.5c0,3.3,0,6.5,0,9.8c0,0.3-0.1,0.4-0.3,0.5c-0.2,0-0.3-0.1-0.4-0.2
				c-0.1-0.1-0.1-0.2-0.1-0.3c0-3.1,0-6.1,0-9.2C52.1,19.4,52.1,19.2,52.1,19.1"/>
			<path style="fill:#012E26;" d="M45.3,21.1c-0.1-0.1-0.1-0.3,0-0.3l0.6-0.3l0.3-0.6c0.1-0.1,0.3-0.1,0.3,0l0.3,0.6l0.6,0.3
				c0.1,0.1,0.1,0.3,0,0.3l-0.6,0.3l-0.3,0.6c-0.1,0.1-0.3,0.1-0.3,0l-0.3-0.6L45.3,21.1z M45.5,21.7l0.4,0.8v3.1
				c0,0.2,0.2,0.4,0.4,0.4c0.2,0,0.4-0.2,0.4-0.4v-3.1l0.4-0.8l1.5-0.8l-1.5-0.8l-0.8-1.4l-0.8,1.4L44,20.9L45.5,21.7z"/>
			<path style="fill:#012E26;" d="M45.9,11.8c0.8,0,1.5,0.3,2,0.8c0.5,0.5,0.8,1.2,0.8,1.9c0,1.1-1,2.1-2.1,2.2c-0.1,0-0.1,0-0.2,0
				c-0.5-0.1-0.8-0.5-0.8-1c0.1-0.5,0.5-0.8,1-0.7c0.4,0.1,0.7,0.4,0.8,0.8c0.5-0.3,0.8-0.8,0.8-1.4c0-0.6-0.2-1.1-0.7-1.5
				c-0.4-0.4-1-0.6-1.6-0.6c-1.7,0-2.8,1.3-2.8,3.3l0,10.7c0,0.2-0.2,0.4-0.4,0.4c-0.2,0-0.4-0.2-0.4-0.4V15.9
				C42.4,13.5,43.8,11.8,45.9,11.8"/>
		</g>
	</g>
	<g>
		<path style="fill:#012E26;" d="M76.2,46.3c-0.1,0-0.3,0-0.5,0l-0.2,0c-0.3,0-0.5,0-0.7,0c-0.2,0-0.6,0-1.2,0c-0.3,0-0.5,0-0.7,0
			c-0.2,0-0.4,0-0.5,0h-0.1V46h0.1c0.4,0,0.6-0.1,0.7-0.3c0.1-0.2,0.1-0.5,0-0.9L73,44.5l-1-2.1l-0.3-0.8c0,0,0,0.1-0.1,0.1
			c-0.4,0.6-1.2,0.8-1.9,0.9c-0.7,0.1-1.3,0.4-1.6,0.7c-0.2,0.2-0.4,0.5-0.5,0.8L67.3,45c-0.2,0.4-0.1,0.6,0.1,0.8
			c0.2,0.2,0.5,0.2,0.8,0.2c0,0,0.1,0,0.1,0l0.1,0v0.4h-0.1c-0.1,0-0.3,0-0.5,0l-0.4,0c-0.4,0-0.7,0-0.9,0c-0.1,0-0.3,0-0.5,0
			l-0.2,0c-0.2,0-0.3,0-0.4,0h-0.1V46l0.1,0c0.7-0.1,1.2-0.4,1.4-1c0.1-0.1,0.1-0.3,0.2-0.4c0.1-0.2,0.2-0.4,0.3-0.7
			c0.2-0.4,0.3-0.8,0.5-1.2c0.2-0.4,0.4-0.9,0.6-1.3c0.2-0.5,0.4-0.9,0.6-1.3c0.1-0.2,0.2-0.5,0.3-0.7c0.1-0.2,0.1-0.3,0.2-0.5
			c0.1-0.2,0.2-0.4,0.3-0.6c0.1-0.2,0.1-0.3,0.2-0.5c0.1-0.2,0.1-0.3,0.2-0.5c0.1-0.1,0.1-0.3,0.2-0.4c0.1-0.2,0.2-0.4,0.2-0.5
			l0.1-0.3H71l3.9,8.9c0.2,0.4,0.3,0.6,0.5,0.8c0.2,0.2,0.5,0.3,0.8,0.3h0.1L76.2,46.3L76.2,46.3z M68.7,41.5
			c-0.1,0.1-0.1,0.2-0.2,0.4c-0.1,0.2-0.2,0.4-0.2,0.6c0.3-0.1,0.8-0.2,1.1-0.2l0.1,0c0.2,0,0.4-0.1,0.6-0.1
			c0.3-0.1,0.5-0.2,0.7-0.5c0.1-0.1,0.2-0.3,0.2-0.4c0.2-0.4,0.1-0.9-0.2-1.7c-0.2-0.5-0.4-1-0.6-1.5L68.7,41.5z"/>
		<path style="fill:#012E26;" d="M69.5,42.3c-0.3,0.1-1,0.1-1.4,0.3c0.1-0.4,0.3-0.8,0.5-1.1l1.5-3.6c0.2,0.6,0.5,1.1,0.7,1.7
			c0.2,0.5,0.4,1.2,0.2,1.7c-0.1,0.2-0.1,0.3-0.3,0.4c-0.2,0.2-0.4,0.4-0.7,0.5C69.9,42.2,69.7,42.3,69.5,42.3 M75.4,45.8
			c-0.2-0.2-0.4-0.5-0.6-0.8L71,36.1h-0.4l-0.1,0.2c0,0.1-0.1,0.3-0.2,0.6c-0.1,0.3-0.2,0.5-0.4,0.9c-0.1,0.3-0.3,0.7-0.5,1.1
			c-0.2,0.4-0.4,0.8-0.5,1.2c-0.2,0.4-0.4,0.9-0.6,1.3c-0.2,0.5-0.4,0.9-0.6,1.3c-0.2,0.4-0.4,0.8-0.5,1.2c-0.2,0.4-0.4,0.8-0.5,1.1
			c-0.3,0.6-0.8,1-1.5,1.1v0.2c0.1,0,0.3,0,0.6,0c0.2,0,0.4,0,0.6,0c0.2,0,0.5,0,0.9,0c0.4,0,0.7,0,0.9,0v-0.2
			c-0.4,0-0.7-0.1-0.9-0.2c-0.3-0.2-0.3-0.5-0.1-0.9l0.4-0.9c0.1-0.3,0.3-0.6,0.5-0.8c0.4-0.4,1.1-0.6,1.7-0.7
			c0.7-0.1,1.4-0.3,1.8-0.9c0.1-0.1,0.1-0.2,0.1-0.3l0.4,1l1,2.1l0.1,0.3c0.2,0.5,0.2,0.8,0,1c-0.1,0.2-0.4,0.3-0.8,0.3v0.2
			c0.2,0,0.6,0,1.2,0c0.6,0,1.1,0,1.2,0c0.1,0,0.4,0,0.7,0c0.3,0,0.5,0,0.7,0v-0.2C75.9,46.1,75.6,46,75.4,45.8"/>
		<path style="fill:#012E26;" d="M3.9,46L3.9,46c0.2,0,0.3,0,0.3,0c0.3,0,0.5-0.1,0.6-0.2C5,45.7,5,45.4,5,45.1c0-0.2,0-0.8,0-1.8
			c0-1,0-1.7,0-2.3c0-0.5,0-1.1,0-1.9v-1.6c0-0.4-0.1-0.6-0.2-0.7c-0.1-0.1-0.3-0.2-0.6-0.2l-0.3,0v-0.3H4c0.6,0,1.3,0,2.3,0l4.9,0
			l0.7,2.3l-0.3,0.1l-0.1-0.2c0,0,0-0.1-0.1-0.1c0,0,0-0.1,0-0.1c0,0-0.1-0.1-0.1-0.1c0,0,0-0.1-0.1-0.1c-0.1-0.1-0.1-0.2-0.2-0.3
			c-0.1-0.1-0.2-0.2-0.3-0.3c0,0-0.1-0.1-0.1-0.1c-0.1-0.1-0.2-0.1-0.3-0.2c0,0-0.1,0-0.1-0.1c-0.1-0.1-0.2-0.1-0.3-0.2
			c-0.2-0.1-0.4-0.1-0.6-0.2c-0.2-0.1-0.4-0.1-0.7-0.1c-0.2,0-0.5-0.1-0.8-0.1l-1.2,0v4.5h1.1c0.9,0,1.4-0.4,1.4-1.3l0-0.3h0.4
			l0,1.8l0,1.6H9.2V43c0,0,0-0.1,0-0.2c-0.1-0.8-0.6-1.2-1.5-1.2l-1.1,0v4.3H8c0.4,0,0.7,0,1.1-0.1c0.3,0,0.6-0.1,0.9-0.2
			c0.2-0.1,0.5-0.2,0.7-0.3c0.2-0.1,0.4-0.2,0.5-0.4c0.1-0.1,0.3-0.2,0.4-0.4c0.1-0.1,0.2-0.2,0.3-0.3l0-0.1c0,0,0-0.1,0.1-0.1
			c0-0.1,0.1-0.1,0.1-0.2c0-0.1,0.1-0.2,0.1-0.2v-0.1l0.4,0.1l-0.9,2.7l-5.4,0l-2.4,0V46z"/>
		<path style="fill:#012E26;" d="M12.5,43.7l-0.8,2.5l-5.4,0l-2.3,0v-0.2c0.1,0,0.2,0,0.3,0c0.3,0,0.6-0.1,0.7-0.2
			c0.1-0.1,0.2-0.4,0.2-0.7c0-0.2,0-0.8,0-1.8c0-1,0-1.7,0-2.3c0-0.5,0-1.1,0-1.9v-1.6c0-0.4-0.1-0.6-0.2-0.7
			c-0.1-0.1-0.3-0.2-0.7-0.2l-0.3,0v-0.2c0.6,0,1.3,0,2.3,0l4.8,0l0.7,2.2l-0.2,0.1l-0.1-0.1c0-0.1-0.1-0.1-0.1-0.2
			c0,0-0.1-0.1-0.2-0.2c-0.1-0.1-0.2-0.2-0.2-0.3c-0.1-0.1-0.2-0.2-0.3-0.3c-0.1-0.1-0.3-0.2-0.4-0.3c-0.1-0.1-0.3-0.2-0.5-0.3
			c-0.2-0.1-0.4-0.1-0.6-0.2c-0.2-0.1-0.4-0.1-0.7-0.1c-0.3,0-0.5-0.1-0.8-0.1l-1.3,0v4.6h1.2c1,0,1.5-0.5,1.5-1.4l0-0.2h0.2l0,1.7
			l0,1.5H9.3c0,0,0-0.1,0-0.2c-0.1-0.9-0.6-1.3-1.5-1.3H6.6V46H8c0.4,0,0.7,0,1.1-0.1c0.3,0,0.6-0.1,0.9-0.2
			c0.2-0.1,0.5-0.2,0.7-0.3c0.2-0.1,0.4-0.3,0.6-0.4c0.1-0.1,0.3-0.2,0.4-0.4c0.1-0.2,0.2-0.3,0.3-0.4c0-0.1,0.1-0.2,0.2-0.3
			c0.1-0.2,0.2-0.2,0.2-0.3L12.5,43.7z"/>
		<path style="fill:#012E26;" d="M31,46L31,46c0.2,0,0.3,0,0.3,0c0.3,0,0.5-0.1,0.6-0.2c0,0,0.1-0.2,0.1-0.7c0-0.2,0-0.8,0-1.8
			c0-1,0-1.7,0-2.3c0-0.5,0-1.1,0-1.9v-1.6c0-0.4-0.1-0.6-0.2-0.7c-0.1-0.1-0.3-0.2-0.6-0.2l-0.3,0v-0.3h0.1c0.6,0,1.3,0,2.3,0
			l4.9,0l0.7,2.3l-0.3,0.1l-0.1-0.2c0,0,0-0.1-0.1-0.1c0,0,0,0,0-0.1c0,0-0.1-0.1-0.1-0.1c0,0,0-0.1-0.1-0.1
			c-0.1-0.1-0.1-0.2-0.2-0.3c-0.1-0.1-0.2-0.2-0.3-0.3c0,0-0.1-0.1-0.1-0.1c-0.1-0.1-0.2-0.1-0.3-0.2l-0.1-0.1
			c-0.1-0.1-0.2-0.1-0.3-0.2c-0.2-0.1-0.4-0.1-0.6-0.2c-0.2-0.1-0.4-0.1-0.7-0.1c-0.2,0-0.5-0.1-0.8-0.1l-1.2,0v4.5h1.1
			c0.9,0,1.4-0.4,1.4-1.3l0-0.3h0.4l0,1.8l0,1.6h-0.4V43c0,0,0-0.1,0-0.2c-0.1-0.8-0.6-1.2-1.5-1.2l-1.1,0v4.3h1.3
			c0.4,0,0.7,0,1.1-0.1c0.3,0,0.6-0.1,0.9-0.2c0.2-0.1,0.5-0.2,0.7-0.3c0.2-0.1,0.4-0.2,0.5-0.4c0.1-0.1,0.3-0.2,0.4-0.4
			c0.1-0.1,0.2-0.2,0.2-0.3l0.1-0.1c0,0,0-0.1,0.1-0.1c0-0.1,0.1-0.1,0.1-0.2c0,0,0.1-0.2,0.1-0.2v-0.1l0.4,0.1l-0.9,2.7l-5.4,0
			l-2.4,0V46z"/>
		<path style="fill:#012E26;" d="M39.6,43.7l-0.8,2.5l-5.4,0l-2.3,0v-0.2c0.1,0,0.2,0,0.3,0c0.3,0,0.6-0.1,0.7-0.2
			c0.1-0.1,0.2-0.4,0.2-0.7c0-0.2,0-0.8,0-1.8s0-1.7,0-2.3c0-0.5,0-1.1,0-1.9v-1.6c0-0.4-0.1-0.6-0.2-0.7c-0.1-0.1-0.3-0.2-0.7-0.2
			l-0.3,0v-0.2c0.6,0,1.3,0,2.3,0l4.8,0l0.7,2.2l-0.2,0.1l-0.1-0.1c0-0.1-0.1-0.1-0.1-0.2c0,0-0.1-0.1-0.2-0.2
			c-0.1-0.1-0.2-0.2-0.2-0.3c-0.1-0.1-0.2-0.2-0.3-0.3c-0.1-0.1-0.3-0.2-0.4-0.3c-0.1-0.1-0.3-0.2-0.5-0.3c-0.2-0.1-0.4-0.1-0.6-0.2
			c-0.2-0.1-0.4-0.1-0.7-0.1c-0.3,0-0.5-0.1-0.8-0.1l-1.3,0v4.6h1.2c1,0,1.5-0.5,1.5-1.4l0-0.2h0.2l0,1.7l0,1.5h-0.2
			c0,0,0-0.1,0-0.2c-0.1-0.9-0.6-1.3-1.5-1.3h-1.2V46h1.4c0.4,0,0.7,0,1.1-0.1c0.3,0,0.6-0.1,0.9-0.2c0.2-0.1,0.5-0.2,0.7-0.3
			c0.2-0.1,0.4-0.3,0.6-0.4c0.1-0.1,0.3-0.2,0.4-0.4c0.1-0.2,0.2-0.3,0.3-0.4c0-0.1,0.1-0.2,0.2-0.3c0.1-0.2,0.2-0.2,0.2-0.3
			L39.6,43.7z"/>
		<path style="fill:#012E26;" d="M52.5,46.4l-7-7.8c0,0.6,0,1.5,0,2.7l0,3.7c0,0.3,0.1,0.6,0.2,0.7c0.2,0.1,0.4,0.2,0.7,0.2l0.3,0
			v0.4l-0.1,0c-0.7,0-1.2,0-1.6,0l-1.5,0v-0.4h0.1c0.1,0,0.1,0,0.2,0c0.3,0,0.6-0.1,0.7-0.3c0.1-0.1,0.2-0.3,0.2-0.7
			c0-0.8,0-2,0-3.7c0-1.5,0-2.7-0.1-3.4c-0.3-0.3-0.6-0.6-0.9-0.9c-0.4-0.3-0.7-0.4-0.9-0.4l-0.1,0v-0.4l2.5,0l0,0
			c0.3,0.2,0.9,0.7,1.6,1.5l5.2,5.9c0-0.7,0-1.5,0-2.5l0-3.8c0-0.3-0.1-0.6-0.2-0.7c-0.2-0.1-0.4-0.2-0.8-0.2l-0.3,0v-0.4l0.1,0
			c0.6,0,1.1,0,1.5,0l1.6,0v0.4H54c-0.1,0-0.1,0-0.2,0c-0.3,0-0.6,0.1-0.7,0.2c-0.1,0.1-0.2,0.3-0.2,0.7c0,0.7,0,2.1,0,3.8l0,5.1
			H52.5z"/>
		<path style="fill:#012E26;" d="M54,36.4v0.2c-0.1,0-0.2,0-0.2,0c-0.4,0-0.6,0.1-0.8,0.3c-0.2,0.1-0.2,0.4-0.3,0.7
			c0,0.6,0,1.9,0,3.8l0,5h-0.2l-7.1-8c0,0.7,0,1.7,0,3l0,3.7c0,0.4,0.1,0.6,0.3,0.7c0.2,0.1,0.4,0.2,0.8,0.3l0.2,0v0.2
			c-0.7,0-1.2,0-1.6,0l-1.4,0V46c0.1,0,0.2,0,0.2,0c0.4,0,0.6-0.1,0.8-0.3c0.2-0.1,0.2-0.4,0.3-0.7c0-0.8,0-2,0-3.7
			c0-1.6,0-2.7-0.1-3.4c-0.3-0.3-0.6-0.6-1-0.9c-0.4-0.3-0.7-0.4-1-0.5v-0.2l2.4,0c0.3,0.2,0.9,0.7,1.6,1.5l5.4,6.1
			c0-0.7,0-1.6,0-2.7l0-3.8c0-0.4-0.1-0.6-0.2-0.7c-0.2-0.1-0.4-0.2-0.8-0.3l-0.2,0v-0.2c0.6,0,1.1,0,1.5,0L54,36.4z"/>
		<path style="fill:#012E26;" d="M61.8,46.3L61.8,46.3c-0.7,0-1.3,0-1.9,0l-2,0V46H58c0.1,0,0.1,0,0.2,0c0.3,0,0.5-0.1,0.6-0.2
			c0.1-0.1,0.2-0.4,0.2-0.8c0-0.6,0.1-1.7,0.1-3.6L59,37.7c0-0.4-0.1-0.7-0.2-0.8c-0.1-0.1-0.3-0.2-0.6-0.2l-0.3,0v-0.4l0.1,0
			c0.6,0,1.2,0,1.9,0l1.9,0v0.4h-0.1c-0.1,0-0.1,0-0.2,0c-0.3,0-0.5,0.1-0.6,0.2l0,0c-0.1,0.1-0.2,0.3-0.2,0.8c0,0.5,0,1.7,0,3.6
			l0,3.6c0,0.5,0.1,0.7,0.2,0.8c0.1,0.1,0.3,0.2,0.6,0.2l0.3,0V46.3z M58.1,36.5l0.1,0c0.4,0,0.6,0.1,0.7,0.3
			c0.2,0.1,0.2,0.4,0.2,0.9l0.1,3.6c0,1.9,0,3-0.1,3.6c0,0.5-0.1,0.8-0.2,0.9c-0.2,0.2-0.4,0.2-0.7,0.3l1.7,0c0.5,0,1,0,1.6,0
			c-0.3,0-0.5-0.1-0.7-0.3c-0.2-0.2-0.2-0.5-0.3-0.9l0-3.6c0-2,0-3.2,0-3.6c0-0.5,0.1-0.8,0.3-0.9l0,0c0.2-0.2,0.4-0.2,0.7-0.3
			c0,0,0.1,0,0.1,0l-1.7,0C59.2,36.5,58.6,36.5,58.1,36.5L58.1,36.5z"/>
		<path style="fill:#012E26;" d="M60.8,36.8c-0.1,0.1-0.2,0.4-0.2,0.9c0,0.5,0,1.7,0,3.6l0,3.6c0,0.4,0.1,0.7,0.2,0.9
			c0.1,0.1,0.4,0.2,0.7,0.3l0.2,0v0.2c-0.6,0-1.3,0-1.8,0l-1.9,0v-0.2c0.1,0,0.2,0,0.2,0c0.3,0,0.6-0.1,0.7-0.3
			c0.1-0.1,0.2-0.4,0.2-0.9c0-0.6,0.1-1.9,0.1-3.6l-0.1-3.6c0-0.4-0.1-0.7-0.2-0.9c-0.1-0.1-0.4-0.2-0.7-0.2l-0.2,0v-0.2
			c0.6,0,1.2,0,1.9,0l1.8,0v0.2c-0.1,0-0.2,0-0.2,0C61.2,36.6,61,36.7,60.8,36.8"/>
		<path style="fill:#012E26;" d="M21.2,46.3c-0.6,0-1.4,0-2.3,0l-2.1,0V46h0.1c0.1,0,0.1,0,0.2,0c0.3,0,0.6-0.1,0.7-0.2
			c0.1-0.1,0.2-0.4,0.2-0.8c0-0.5,0-1,0-1.8l0-3.9c0,0,0-0.1,0-0.1c0-0.5,0.2-1.8,2-1.9l0.3,0v0.4h-0.1c0,0-0.6-0.1-0.6,0.9
			c0,0.2,0,0.8,0,1.4c0,1.1,0,2.4,0,3.5l0,0.2l0,1.6c0,0.3,0.1,0.5,0.2,0.6c0.1,0.1,0.4,0.2,0.7,0.2c0.1,0,0.3,0,0.4,0
			c0.9,0,1.8-0.2,2.4-0.7c1.1-0.7,1.7-2,1.7-4c0-1.3-0.3-2.4-0.9-3.2c-0.6-0.8-1.4-1.2-2.4-1.3c-0.3,0-0.6,0-0.6,0l-0.2,0
			c-0.4,0-1.2,0-1.5,0c-0.3,0-0.5,0.1-0.7,0.1c-0.2,0.1-0.4,0.1-0.6,0.2c-0.1,0.1-0.2,0.1-0.3,0.2l-0.1,0.1
			c-0.1,0.1-0.2,0.1-0.3,0.2c0,0-0.1,0.1-0.1,0.1c-0.1,0.1-0.2,0.2-0.3,0.3c-0.1,0.1-0.1,0.2-0.2,0.3c-0.1,0.1-0.2,0.3-0.2,0.4l0,0
			l-0.1,0.2l-0.3-0.1l0.7-2.2v-0.1l0.1,0l2.7,0c0.1,0,0.8,0,1.5,0c0.7,0,1.1,0,1.3,0c1.5,0.1,2.6,0.6,3.4,1.5c0.8,0.9,1.2,2,1.2,3.4
			c0,1.9-0.6,3.3-1.8,4.1c-0.4,0.3-0.9,0.5-1.3,0.7c-0.4,0.2-1,0.3-1.7,0.3C21.9,46.3,21.6,46.3,21.2,46.3z"/>
		<path style="fill:#012E26;" d="M25.6,37.8c-0.8-0.9-1.9-1.3-3.3-1.5c-0.4-0.1-2.5,0-2.7,0l-2.6,0l0,0c0,0,0,0,0,0v0.1l-0.7,2.1
			l0.2,0.1l0.1-0.1c0-0.1,0.2-0.3,0.3-0.4c0.1-0.1,0.2-0.2,0.2-0.3c0.1-0.1,0.2-0.2,0.3-0.3c0.1-0.1,0.3-0.2,0.4-0.3
			c0.1-0.1,0.3-0.2,0.5-0.3c0.2-0.1,0.4-0.1,0.6-0.2c0.2-0.1,0.4-0.1,0.7-0.1c0.4,0,1.7,0,1.7,0s0.3,0,0.6,0c1,0.1,1.9,0.6,2.5,1.4
			c0.6,0.8,0.9,1.9,0.9,3.2c0,2-0.6,3.3-1.7,4c-0.8,0.6-1.8,0.8-2.9,0.7c-0.3,0-0.6-0.1-0.7-0.2c-0.2-0.1-0.2-0.4-0.2-0.7v-1.6
			c0-0.1,0-0.1,0-0.2c0-1.8,0-4.4,0-4.9c0-1,0.6-1,0.7-1v-0.2l-0.2,0c-0.6,0-1.9,0.3-1.9,1.9c0,0,0,0.1,0,0.1l0,3.9
			c0,0.7,0,1.3,0,1.8c0,0.4-0.1,0.7-0.2,0.8c-0.1,0.1-0.4,0.2-0.7,0.3c-0.1,0-0.2,0-0.2,0v0.2l2,0c1.7,0,2.8,0,3.1,0
			c0.7,0,1.2-0.1,1.7-0.3c0.4-0.2,0.9-0.4,1.3-0.7c1.2-0.9,1.8-2.2,1.8-4.1C26.8,39.8,26.4,38.7,25.6,37.8z"/>
	</g>
</g>
</svg>
