<?xml version="1.0" encoding="utf-8"?>
<!-- Generator: Adobe Illustrator 16.0.0, SVG Export Plug-In . SVG Version: 6.00 Build 0)  -->
<!DOCTYPE svg PUBLIC "-//W3C//DTD SVG 1.1//EN" "http://www.w3.org/Graphics/SVG/1.1/DTD/svg11.dtd">
<svg version="1.1" id="Layer_1" xmlns="http://www.w3.org/2000/svg" xmlns:xlink="http://www.w3.org/1999/xlink" x="0px" y="0px"
	 width="30px" height="30px" viewBox="0 0 30 30" enable-background="new 0 0 30 30" xml:space="preserve">
<path fill="#ED1C24" d="M9.851,4.888h11.111v2.778H9.851V4.888z M25.129,9.055H5.684c-0.764,0-1.389,0.624-1.389,1.389v6.945
	c0,0.764,0.625,1.389,1.389,1.389h4.167v5.558h11.111v-5.558h4.167c0.764,0,1.389-0.625,1.389-1.389v-6.945
	C26.518,9.679,25.893,9.055,25.129,9.055 M19.573,22.943h-8.334v-6.944h8.334V22.943z M25.441,11.138
	c0,0.556-0.45,1.007-1.008,1.007s-1.009-0.452-1.009-1.007c0-0.556,0.451-1.007,1.009-1.007S25.441,10.582,25.441,11.138"/>
</svg>
