<?xml version="1.0" encoding="utf-8"?>
<!-- Generator: Adobe Illustrator 16.0.0, SVG Export Plug-In . SVG Version: 6.00 Build 0)  -->
<!DOCTYPE svg PUBLIC "-//W3C//DTD SVG 1.1//EN" "http://www.w3.org/Graphics/SVG/1.1/DTD/svg11.dtd">
<svg version="1.1" id="Layer_1" xmlns="http://www.w3.org/2000/svg" xmlns:xlink="http://www.w3.org/1999/xlink" x="0px" y="0px"
	 width="60px" height="60px" viewBox="0 0 60 60" enable-background="new 0 0 60 60" xml:space="preserve">
<g>
	<rect x="12.1" y="21.4" fill="#ED1C24" width="8.6" height="29.9"/>
	<path fill="#ED1C24" d="M44.7,23.1c-3.2-1.8-7.9-1.9-11.3-0.4v-1.3H24.8v29.9H33.4V32.2l3.5-1.7c0.896-0.4,2.8-0.4,3.6,0.1
		C41.1,30.9,42,32.3,42,33.2v18.2h8.6V33.2C50.5,29.2,48.1,25,44.7,23.1z"/>
	<path fill="#ED1C24" d="M16.3,7.5c-3,0-5.3,2.4-5.3,5.3c0,3,2.4,5.3,5.3,5.3c3,0,5.3-2.4,5.3-5.3C21.7,9.9,19.3,7.5,16.3,7.5z"/>
</g>
</svg>
