<?xml version="1.0" encoding="utf-8"?>
<!-- Generator: Adobe Illustrator 15.1.0, SVG Export Plug-In . SVG Version: 6.00 Build 0)  -->
<!DOCTYPE svg PUBLIC "-//W3C//DTD SVG 1.1//EN" "http://www.w3.org/Graphics/SVG/1.1/DTD/svg11.dtd">
<svg version="1.1" id="Layer_1" xmlns="http://www.w3.org/2000/svg" xmlns:xlink="http://www.w3.org/1999/xlink" x="0px" y="0px"
	 width="80px" height="80px" viewBox="0 0 80 80" style="enable-background:new 0 0 80 80;" xml:space="preserve">
<style type="text/css">
<![CDATA[
	.st0{fill:#231F20;}
]]>
</style>
<path class="st0" d="M56.367,29.434h-0.373h-1.269v-1.599h1.269h0.373V29.434z M71.635,64.688c-0.075-0.073-0.148-0.147-0.219-0.218
	c-0.228-0.147-0.377-0.294-0.523-0.436c-0.299-0.222-0.601-0.439-0.896-0.656c0-0.072-0.073-0.072-0.148-0.146
	c-0.15-0.149-0.297-0.218-0.445-0.362c-0.076-0.073-0.149-0.216-0.301-0.295c-0.298-0.288-0.518-0.503-0.818-0.797
	c-1.266-1.16-2.457-2.467-3.426-3.632c-0.818-0.801-0.818-1.38,0-0.732c0.748,0.584,2.383,2.84,2.756,2.692
	c0.223,0.216,0.372,0.583,0.372,0.583c0.149,0.145,0.298,0.145,0.298,0.066c0.076,0,0.076-0.142,0-0.216
	c0-0.073,0-0.073-0.072-0.073c-0.598-0.941-0.971-0.801-2.459-2.545c-0.521-0.651-0.816-1.309,0-0.436
	c-0.146,0.073,0.818,0.802,0.672,0.583c0.516,0.508,0.892,0.655-0.301-0.51c0.301-0.149-2.309-2.324-1.785-2.69
	c-0.299-0.438,0.073-0.22,0.073-0.22c0-0.218-0.149-0.362,0-0.362c0-0.071,0.224-0.071,0.446,0.146
	c0.449-0.07,2.383,3.126,2.979,3.42c0.149-0.149-0.445-0.515,0.149-0.294c0.149-0.149,0.075-0.292,0.075-0.292
	c0.074-0.073,0.15-0.073,0.223-0.073c0.223,0.073,0.521,0.439,0.818,0.875c0.076,0.146,0.225,0.289,0.301,0.508
	c0.148,0.149,0.295,0.363,0.445,0.581c0.075,0,0.148,0.073,0.148,0.149c0.296,0.355,0.598,0.647,0.896,0.941
	c0.071,0.149,0.146,0.216,0.296,0.289c0.298,0.292,0.597,0,0.298-0.22c-0.225-0.146-0.373-0.363-0.594-0.508
	c-0.373-0.29-0.672-0.582-0.896-0.802c-0.073-0.146-0.073-0.216-0.148-0.287c0-0.073-0.072-0.149-0.072-0.221
	c0-0.217-0.148-0.437-0.373-0.649c-0.076-0.074-0.149-0.224-0.301-0.295c-0.223-0.291-0.518-0.512-0.818-0.729
	c-0.148-0.146-0.369-0.291-0.447-0.362c-0.445-0.36,0.149-0.508-0.071-0.944c-0.524-0.362,0.149-0.436,0.149-0.436
	c0.071-0.069,0.221,0,0.369,0.146c0.223,0.219,0.521,0.653,0.818,1.018c0.151,0.146,0.225,0.36,0.301,0.512
	c0.148,0.22,0.295,0.359,0.445,0.577c0.075,0.071,0.148,0.071,0.148,0.147c0.15,0.22,0.296,0.367,0.447,0.367
	c0.449,0.288,0.15-0.367-0.297-0.659c-0.076,0-0.076-0.07-0.15-0.07c-0.073-0.072-0.073-0.143-0.148-0.223
	c-0.297-0.434,0.148-0.58-0.445-1.161v-0.068c-0.076-0.073-0.225-0.219-0.301-0.437c-0.146-0.363-0.298-0.872-0.518-0.946
	l-0.078,0.074c-0.073,0-0.146-0.074-0.223-0.147c-0.816-1.021-1.488-2.106-2.457-3.347c-0.074-0.36-0.891-1.67-1.041-1.959
	c0-0.222,0.15-0.364,0.072-0.946c0.146,0.44,0.748,1.383,0.748,1.383c0.221,0.146,0.444,0.801,0.668,1.015
	c0.224,0.223,0.593,0.801,0.593,0.801c0.374,0-0.743-1.304-0.964-1.74c-0.297-0.51-0.746-1.386-1.268-2.185
	c0,0,0.15,0.511-0.148-0.142c-0.075-0.294-0.225-0.657-0.447-0.804c-0.449-0.362,0.149-0.071-0.225-0.435
	c0-0.147-0.152,0-0.152-0.292s-0.219-0.653-0.219-0.653c-0.074-0.653-0.074-0.218-0.371-0.801c0,0,0.144-0.146,0-0.22
	c-0.076-0.146-0.447-0.798-0.447-1.089c0-0.219-0.149-0.8-0.225-1.09l-0.074-0.29c-0.075-0.295-0.148-0.583-0.148-0.801
	c-0.301-0.218-0.152-0.147-0.152-0.365v-0.218c-0.075-0.07-0.148,0-0.148-0.218c0-0.216,0-0.216-0.223-0.438
	c-0.223-0.365-0.072-0.218-0.146-0.729c0-0.218,0-0.218-0.076-0.36c0,0,0.15-0.074,0.15-0.29c-0.301-0.872-0.372-2.11-0.372-3.49
	v-5.091h-1.562v-1.598h1.562v-3.196h-1.562v1.598h-1.344h-0.301v-1.598h0.301h1.344v-1.591h-1.344h-0.301v-1.596h0.301h1.344v-1.599
	h1.562v-1.602h-1.563v1.599h-1.342h-0.301v1.602H56.44h-0.073v1.596h-0.373h-1.269v-1.596h1.269h0.373v-1.599h-0.373h-1.269v-1.604
	h-0.444h-0.746H53.09v1.604h0.445h0.746h0.442v1.599h-0.442h-0.746H53.09v11.193h0.445h0.746h0.444v1.524h-0.444h-0.746H53.09v0.436
	c0.074,1.672,0.226,3.271,0.445,4.943c0.152,0.726,0.297,1.522,0.523,2.253c0.073,0.361,0.148,0.435,0.223,0.435
	c0.074,0.073,0.074-0.506,0-1.092v-0.07l0.074-0.071c0-0.071,0-0.291-0.074-0.438l-0.223-0.362c-0.67-0.8,0.073-0.361-0.227-1.31
	c-0.221-0.656-0.297-0.871-0.145-1.232c0.219-0.222-0.076-0.802,0.07-1.019c-0.07-0.729-0.146-1.163-0.146-1.38
	c0,0.29,0.146,0.868,0.373,1.451c0.147,0.361,0.223,0.652,0.297,0.871c0.074,0.291,0.074,0.438,0,0.649
	c-0.074,0.076-0.074,0.441-0.074,0.657c0,0,0.074,0.076,0.074,0.145c0.074,0.223,0.146,0.729,0.146,0.729
	c-0.221,0.22,0.373,0.51,0.227,0.729c0.298,0.65-0.078,1.962,0.521,2.474c0.3,0.219,0,0.29,0,0.579
	c0.222,0.219,0.222,0.149,0.3,0.582c0,0.438,0.445,0.22,0.297,0.944c0,0.364-0.149,0.945,0.223,1.38
	c0,0.072,0.072,0.072,0.072,0.149c0.523,0.362,0.151,1.233,0.374,1.449c-0.149,0.149-0.073,0.439,0,0.729
	c0.149,0.365,0.298,0.655,0.374,0.945c0.07,0.073,0.148,0.295,0.223,0.437c0.073,0.072,0.15,0.145,0.222,0.216
	c0.075,0.224,0.673,0.946,1.046,1.24c0.076,0.07,0.146,0.146,0.146,0.146c0.745,0.58,0,0.362,0.522,0.874
	c-0.224,0.65,1.491,2.471,1.786,2.69c0.223,0.143,0.521,0.799,0.748,1.159c-0.076,0.145,0.074,0.433,0.146,0.727
	c1.189,1.456,2.534,2.838,3.951,4.143c0.965,0.655,0.297-0.431-0.449-0.867c-0.221-0.219-1.117-0.804-1.418-1.672
	c-0.148-0.439-0.369-0.654-0.895-0.942c-0.739-0.443-0.518-0.953,0.6-0.074c1.414,1.019,1.561,1.742,2.01,2.179
	c0.521,0.362,1.342,0.799,1.714,1.164c0.148,0.287,0.598,0.802,1.116,1.381c0.301,0.218,0.521,0.512,0.818,0.801
	c0.151,0.07,0.225,0.146,0.301,0.293c0.148,0.07,0.295,0.215,0.445,0.36c0.075,0.072,0.148,0.072,0.148,0.144
	c0.296,0.221,0.598,0.51,0.896,0.653c0.296,0.289,0.594,0.438,0.742,0.438c0.15,0.074,0.299,0.074,0.374,0.147
	c0.149,0,0.149-0.071,0-0.294C71.932,64.98,71.785,64.83,71.635,64.688"/>
<path class="st0" d="M44.973,15.044H44.08h-0.822V13.52h0.822h0.893V15.044z M48.248,18.241h-1.64v-1.596h1.64v-1.602h-1.64V13.52
	h-1.636v-1.602H44.08h-0.822v1.602h-1.564v11.118h1.564v1.6h-1.564v0.293v0.143c0,3.854-1.268,7.925-3.055,11.557
	c-0.892,1.815-2.013,3.563-3.052,5.162c-1.789,2.542-3.577,4.505-4.92,5.377c0,0.074-0.071,0.074-0.071,0.074
	c-0.151,0.143-0.151,0.289-0.151,0.289c0,0.071-0.147,0.071-0.222,0.218c-0.372,0.291-0.147,0.291-0.594,0.51
	c-0.374,0-0.301,0.071-0.452,0.149c-0.147,0.141-0.22,0.066-0.296,0.066c0,0.072-0.073,0.145-0.146,0.219
	c-0.149,0.146,0.073,0.146-0.296,0.146c-0.227,0.146-0.449,0.293-0.747,0.512l-0.151,0.144c-0.369,0.219-0.741,0.585-0.892,0.655
	l-0.073,0.071c-0.298,0.221-0.894,0.438-1.045,0.438c-0.147,0-0.147,0.218-0.147,0.218c-0.596,0.291-0.3-0.074-0.82,0.437
	c0,0-0.445,0.072-0.594,0.29c-0.152,0.218-0.223,0.073-0.298,0.073c-0.374,0.074-0.152,0.145-0.223,0.221h-0.227
	c-0.222-0.076-0.674,0.218-0.896,0.359c-0.667,0.291-0.22,0-0.22,0c-0.222,0.074-0.374,0.147-0.596,0.22
	c-0.667,0.216-1.336,0.505-1.862,0.651c-0.374,0.147-2.16,0.437-1.86,0.728c0,0,0.67-0.218,0.968-0.218
	c0.298,0,0.892-0.438,1.268-0.438c0,0,1.039-0.22,1.412-0.509c-0.374,0.365-0.374,0.583-0.593,0.731
	c-0.301,0.216-1.717,0.648-2.161,0.796c-1.417,0.364-2.609,0.729-3.874,0.947h-0.149H14.43v-0.149c-0.374,0-1.266,0.582-1.563,0.582
	c-1.115,0.143-0.447,0.728-1.638,0.728c-0.151-0.071-0.374-0.071-0.522,0c-0.074,0-0.147,0.073-0.223,0.073
	c-0.076,0.071-0.076,0.146,0,0.146h0.149c0,0.07,0.074,0.07,0.074,0.07c0.82,0.073,3.5-0.941,3.723-0.508
	c0,0,0.374,0.438-0.223,0.438c-0.445,0.218-0.151,0.651-0.743,0.651c-0.674,0-2.16-0.146-2.758,0.22v0.072
	c-0.074,0-0.147,0.072-0.223,0.146c-0.076,0-0.149,0.074-0.222,0.074h-0.223c-0.151,0.07-0.227,0.07-0.374,0.07H8.693H8.175
	c-0.372,0.074-0.372,0.364,0.073,0.364h0.447c0.372,0,0.672-0.078,0.97-0.078c0.146-0.066,0.222-0.066,0.374-0.066
	c0.069-0.073,0.147-0.073,0.223-0.073c0.073,0,0.146,0,0.222-0.07c0.076,0,0.149,0,0.223-0.073c1.192-0.291,2.084-0.509,2.084-0.147
	c0,0-0.149,0.074-0.072,0.291c0.519,0.22-0.148,0.143-0.148,0.362c0.296,0.071,1.266-0.223,2.233-0.435
	c1.041-0.221,2.157-0.512,2.309-0.292c0.296,0,0.521,0.071,0.521,0.147c0,0.146-0.149,0.217-0.372,0.217c0,0,0.522,0.22-0.073,0.292
	c0.146,0.436-1.417,0.509-2.384,0.651c-0.445,0.072-0.748,0.148-0.748,0.222c-1.637,0.144-1.265,0.22-0.591,0.22
	c-0.227,0.142,0.965,0.142,0.965,0h0.374c0.371,0,0.298,0.069,0,0.142c-0.149,0.074-0.445,0.074-0.748,0.149
	c-2.084,0.363-2.379,0.072-3.349,0.29c0,0-0.074,0.073-0.223,0.073c-0.298,0-0.376,0.294,0,0.294h0.076c0,0,0.073,0,0.147-0.076
	c0.148,0,0.298-0.073,0.522-0.073c0.147,0.292,2.458-0.145,3.575-0.292h0.298c0.967,0,0.743,0.443-0.298,0.512
	c-0.072,0-0.149,0-0.223,0.072c-1.116,0.147-2.459,0.289-3.874,0.437h-0.223c-0.076,0-0.149,0.07-0.222,0.07h-0.223H9.666
	c-0.298,0-0.599,0.07-0.97,0.07H7.579c-0.3,0.077-0.598,0.077-0.894,0.077c-0.298,0-0.672-0.077-0.895-0.077H5.492H5.415
	c-1.19,0-1.337,0.22-0.594,0.442c0,0.066,0.296,0.146,0.67,0.146h0.298h0.894h0.896c0.37,0,0.746-0.078,1.117-0.078
	c0.372,0,0.672-0.066,0.97-0.066c0.146,0,0.222-0.073,0.374-0.073h0.223c0.073,0,0.146-0.073,0.222-0.073h0.223
	c0.075-0.073,0.148-0.073,0.148-0.073c0.596-0.067,1.412,0.073,2.084,0.073c0.525,0.073,0.97-0.217,1.864-0.294
	c0.298-0.068,0.671-0.068,1.192,0c1.413,0.077,1.192,0.656,0.371,0.51c-0.596-0.216-0.892-0.066-1.339,0.077
	c-0.074,0.069-0.151,0.069-0.224,0.146c-0.748,0.293-1.64,0.219-1.938,0.219c-0.895-0.148-2.16,0.289-0.968,0.36
	c0.968,0,1.938-0.071,2.905-0.216c0.967-0.07,1.939-0.22,2.904-0.363c0.223-0.146,0.594-0.289,0.594-0.438
	c0.375-0.143,1.045-0.437,1.341-0.437c0.225,0,1.043-0.073,1.864-0.22c0.596-0.146,1.192-0.357,1.343-0.65
	c0.594-0.074,0.147-0.224,0.594-0.292h0.298c0.443,0,1.564-0.22,1.859-0.36h0.299c0.149-0.075,0.374-0.149,0.522-0.22
	c0,0,0.074-0.073,0.149-0.073c0.372-0.218,0.817-0.364,1.117-0.585c0.074-0.145,0.151-0.216,0.151-0.286
	c0.298,0,0.596-0.946,1.188-0.946c0.672,0,0.972-0.652,1.268-0.942c0.147-0.219,0.223-0.29,0.37-0.29
	c0.151-0.076,0.302,0.071,0.451-0.148c0.296-0.289,0.369-0.289,0.669-0.289c0.223-0.219-0.078-0.509,0.445-0.509
	c0.746,0,1.341-1.232,2.011-1.453c0-0.363,0.672-0.144,0.672-0.508c0,0,0.52-0.365,0.672-0.512h0.071
	c0.151-0.145,0.303-0.362,0.374-0.508c0.149-0.362,0.371-0.508,1.192-0.946c0.596-0.29,1.119-0.726,1.34-0.8
	c-0.147,0.074-0.519,0.365-1.117,0.8c0,0.362-0.594,0.584-0.594,0.946c-0.074,0.363-0.374,0.363-0.971,0.8
	c-0.148,0.072-0.224,0.145-0.295,0.22c-0.301,0.364,0.222,0.438-0.748,0.653l-0.445,0.145c-0.075,0.071-0.225,0.146-0.301,0.289
	v0.073c-0.667,0.654-1.263,1.235-0.295,0.73c0.596-0.437,1.192-0.872,1.789-1.383c1.039-0.873,2.084-1.743,3.052-2.69
	c2.084-2.036,3.946-4.36,5.441-6.831c3.496-5.525,5.585-11.994,5.732-18.897V26.53v-5.087h-1.564v-1.599h1.564v-3.199h-1.564V18.241
	z M44.973,21.443H44.08h-0.822v-1.599h0.822h0.893V21.443z"/>
</svg>
