<?xml version="1.0" encoding="utf-8"?>
<!-- Generator: Adobe Illustrator 16.0.0, SVG Export Plug-In . SVG Version: 6.00 Build 0)  -->
<!DOCTYPE svg PUBLIC "-//W3C//DTD SVG 1.1//EN" "http://www.w3.org/Graphics/SVG/1.1/DTD/svg11.dtd">
<svg version="1.1" id="Layer_1" xmlns="http://www.w3.org/2000/svg" xmlns:xlink="http://www.w3.org/1999/xlink" x="0px" y="0px"
	 width="79px" height="107px" viewBox="0 0 79 107" enable-background="new 0 0 79 107" xml:space="preserve">
<g>
	<path fill="#B7C64A" d="M78.75,39.25c0,10.33-3.991,19.729-10.515,26.736
		C61.069,73.685,39.25,107,39.25,107S16.567,73.019,9.367,64.401C3.675,57.591,0.25,48.821,0.25,39.25C0.25,17.573,17.823,0,39.5,0
		S78.75,17.573,78.75,39.25"></path>
	<path fill="#4A7B7C" d="M74.75,38.917
		c0,19.284-15.633,34.917-34.917,34.917c-19.284,0-34.916-15.633-34.916-34.917S20.549,4,39.833,4
		C59.117,4,74.75,19.633,74.75,38.917"></path>
	<path fill="#FFFFFF" d="M33.565,34.658h0.249
		c0.448,0,1.31-0.023,1.691-0.293c0.327-0.233,0.405-0.652,0.405-1.029c0-0.413-0.085-0.867-0.436-1.129
		c-0.397-0.295-1.187-0.329-1.66-0.329h-0.249V34.658z M49.038,35.463c0-0.493-0.089-0.971-0.273-1.427
		c-0.184-0.451-0.449-0.853-0.787-1.202c-0.333-0.345-0.718-0.614-1.158-0.801c-0.442-0.188-0.908-0.281-1.389-0.281
		c-0.481,0-0.947,0.09-1.392,0.276c-0.443,0.187-0.835,0.461-1.172,0.806c-0.338,0.346-0.604,0.745-0.785,1.195
		c-0.183,0.458-0.27,0.94-0.27,1.434c0,0.489,0.087,0.966,0.27,1.419c0.183,0.449,0.449,0.849,0.786,1.196
		c0.335,0.346,0.726,0.618,1.169,0.805s0.912,0.277,1.394,0.277c0.477,0,0.936-0.091,1.375-0.277
		c0.442-0.188,0.836-0.46,1.172-0.805c0.339-0.347,0.604-0.748,0.787-1.197C48.948,36.426,49.038,35.953,49.038,35.463
		 M55.098,34.658h0.249c0.447,0,1.311-0.023,1.69-0.293c0.328-0.233,0.405-0.652,0.405-1.029c0-0.413-0.085-0.867-0.437-1.129
		c-0.396-0.295-1.186-0.329-1.659-0.329h-0.249V34.658z M65.188,36.467h2.647l-0.998-2.219c-0.072-0.163-0.13-0.337-0.186-0.507
		c-0.052-0.154-0.1-0.309-0.146-0.464c-0.039,0.148-0.084,0.296-0.132,0.443c-0.058,0.176-0.111,0.359-0.188,0.528L65.188,36.467z
		 M20.544,30.38h1.708v6.137c0,0.697,0.125,1.472,0.614,2.004c0.475,0.516,1.163,0.667,1.84,0.667c0.675,0,1.357-0.153,1.83-0.667
		c0.489-0.532,0.614-1.307,0.614-2.004V30.38h1.722v6.287c0,1.103-0.224,2.277-1.04,3.08c-0.821,0.807-2.021,1.023-3.131,1.023
		c-1.106,0-2.303-0.214-3.122-1.021c-0.813-0.803-1.035-1.981-1.035-3.082V30.38z M33.467,36.015v4.489h-1.624V30.38h2.319
		c0.501,0,1.074,0.017,1.563,0.132c0.347,0.081,0.676,0.22,0.958,0.439c0.327,0.254,0.567,0.58,0.735,0.958
		c0.179,0.406,0.256,0.837,0.256,1.28c0,0.682-0.138,1.384-0.593,1.917c-0.427,0.5-1.031,0.734-1.667,0.824l3.458,4.574h-1.957
		l-3.338-4.489H33.467z M50.831,35.463c0,0.705-0.13,1.389-0.402,2.038c-0.275,0.651-0.674,1.223-1.181,1.715
		c-0.512,0.497-1.101,0.885-1.761,1.153c-0.658,0.268-1.346,0.401-2.057,0.401c-0.721,0-1.417-0.131-2.084-0.403
		c-0.658-0.269-1.242-0.654-1.75-1.151c-0.503-0.491-0.903-1.06-1.176-1.708c-0.272-0.651-0.4-1.339-0.4-2.045
		c0-0.707,0.13-1.394,0.4-2.045c0.272-0.653,0.669-1.228,1.176-1.722c0.508-0.497,1.095-0.882,1.755-1.147
		c0.665-0.266,1.362-0.393,2.079-0.393c0.713,0,1.406,0.128,2.067,0.393c0.658,0.264,1.245,0.649,1.75,1.147
		c0.506,0.498,0.905,1.077,1.181,1.731C50.701,34.076,50.831,34.758,50.831,35.463 M54.999,36.015v4.489h-1.624V30.38h2.32
		c0.501,0,1.073,0.017,1.563,0.132c0.347,0.081,0.676,0.22,0.958,0.439c0.326,0.255,0.567,0.58,0.734,0.958
		c0.179,0.406,0.256,0.837,0.256,1.28c0,0.682-0.138,1.384-0.593,1.917c-0.427,0.5-1.031,0.734-1.667,0.824l3.459,4.574h-1.957
		l-3.338-4.489H54.999z M12.396,34.269l2.025-4.347l4.926,10.582h-1.827l-0.024-0.055c-0.99-1.802-2.534-3.251-4.396-4.121
		l-1.792,4.176H9.491l2.193-4.706c-0.715-0.206-1.45-0.327-2.192-0.364c2.16-0.44,4.256-0.122,6.22,0.925
		c-0.426-1.048-0.849-2.097-1.278-3.144l-0.729,1.7c-1.076-0.273-2.188-0.353-3.293-0.245
		C11.075,34.491,11.736,34.358,12.396,34.269 M68.454,37.923h-3.912l-1.164,2.581h-1.816l4.93-10.582l4.925,10.582H69.59
		L68.454,37.923z"></path>
</g>
</svg>
