<?xml version="1.0" encoding="UTF-8"?>
<!-- Generator: Adobe Illustrator 23.0.5, SVG Export Plug-In . SVG Version: 6.00 Build 0)  -->
<svg version="1.1" id="Layer_1" xmlns="http://www.w3.org/2000/svg" xmlns:xlink="http://www.w3.org/1999/xlink" x="0px" y="0px" width="100px" height="100px" viewBox="0 0 100 100" style="enable-background:new 0 0 100 100;" xml:space="preserve">
<style type="text/css">
	.st0{fill:url(#SVGID_1_);}
	.st1{fill:#FFFFFF;}
</style>
<linearGradient id="SVGID_1_" gradientUnits="userSpaceOnUse" x1="50" y1="100" x2="50" y2="-9.094947e-13">
	<stop offset="0" style="stop-color:#3264EB"/>
	<stop offset="1" style="stop-color:#46C8FF"/>
</linearGradient>
<rect x="0" class="st0" width="100" height="100"/>
<path class="st1" d="M50.4,21.6c-16.2,0-29.3,12-29.3,26.9c0,8.4,4.2,15.9,10.7,20.8v10.9l11-5.7c2.4,0.6,5,0.9,7.6,0.9  c16.2,0,29.3-12,29.3-26.9C79.7,33.6,66.6,21.6,50.4,21.6z M53.5,57.9l-7.6-7l-14.4,7.3l15.5-16.9l7.3,7.3L69.3,41L53.5,57.9z"/>
</svg>