<?xml version="1.0" encoding="utf-8"?>
<!-- Generator: Adobe Illustrator 16.0.0, SVG Export Plug-In . SVG Version: 6.00 Build 0)  -->
<!DOCTYPE svg PUBLIC "-//W3C//DTD SVG 1.1//EN" "http://www.w3.org/Graphics/SVG/1.1/DTD/svg11.dtd">
<svg version="1.1" id="Layer_1" xmlns="http://www.w3.org/2000/svg" xmlns:xlink="http://www.w3.org/1999/xlink" x="0px" y="0px"
	 width="30px" height="30px" viewBox="0 0 30 30" enable-background="new 0 0 30 30" xml:space="preserve">
<ellipse fill="none" stroke="#ED1C24" stroke-width="2" stroke-miterlimit="10" cx="14.979" cy="14.978" rx="13.832" ry="13.792"/>
<path fill="#ED1C24" d="M20.52,18.813L20.52,18.813c0,0-1.573-1.029-2.24-1.513c-0.243-0.182-0.544-0.242-0.787-0.242
	c-0.364,0-0.605,0.183-0.605,0.183l0,0c0,0-0.121,0.12-0.428,0.363c-0.301,0.243-0.666,0.182-0.965-0.122
	c-0.426-0.362-2.667-3.148-3.334-4.118c-0.12-0.181-0.181-0.363-0.181-0.544c0.061-0.363,0.485-0.605,0.667-0.788l0.06-0.06
	c0.424-0.303,0.485-0.849,0.364-1.211c-0.121-0.243-0.968-2.179-1.09-2.422c-0.181-0.122-0.363-0.424-0.846-0.424
	c-0.303,0-1.03,0.121-1.514,0.485l-0.119,0.06c-0.423,0.303-1.271,0.847-1.271,1.998c0,1.515,1.09,3.693,3.391,6.783
	c2.422,3.27,5.329,4.845,6.541,4.845c1.09,0,2.179-1.332,2.481-1.999C21.006,19.479,20.762,18.996,20.52,18.813z"/>
</svg>
