<?xml version="1.0" encoding="utf-8"?>
<!-- Generator: Adobe Illustrator 16.0.0, SVG Export Plug-In . SVG Version: 6.00 Build 0)  -->
<!DOCTYPE svg PUBLIC "-//W3C//DTD SVG 1.1//EN" "http://www.w3.org/Graphics/SVG/1.1/DTD/svg11.dtd">
<svg version="1.1" id="Layer_1" xmlns="http://www.w3.org/2000/svg" xmlns:xlink="http://www.w3.org/1999/xlink" x="0px" y="0px"
	 width="110px" height="110px" viewBox="0 0 110 110" enable-background="new 0 0 110 110" xml:space="preserve">
<path fill="#FF0000" d="M107.745,28.768c-1.269-4.713-4.984-8.428-9.696-9.697c-8.609-2.356-43.05-2.356-43.05-2.356
	s-34.438,0-43.048,2.267c-4.622,1.268-8.429,5.075-9.697,9.787c-2.266,8.609-2.266,26.463-2.266,26.463s0,17.944,2.266,26.463
	c1.269,4.713,4.984,8.429,9.698,9.697C20.651,93.748,55,93.748,55,93.748s34.439,0,43.049-2.266
	c4.712-1.268,8.428-4.984,9.696-9.697c2.267-8.609,2.267-26.463,2.267-26.463S110.103,37.377,107.745,28.768z"/>
<path fill="#FFFFFF" d="M44.034,71.727l28.638-16.495L44.034,38.737V71.727z"/>
</svg>
