<?xml version="1.0" encoding="utf-8"?>
<!-- Generator: Adobe Illustrator 16.0.0, SVG Export Plug-In . SVG Version: 6.00 Build 0)  -->
<!DOCTYPE svg PUBLIC "-//W3C//DTD SVG 1.1//EN" "http://www.w3.org/Graphics/SVG/1.1/DTD/svg11.dtd">
<svg version="1.1" id="Layer_1" xmlns="http://www.w3.org/2000/svg" xmlns:xlink="http://www.w3.org/1999/xlink" x="0px" y="0px"
	 width="60px" height="60px" viewBox="0 0 60 60" enable-background="new 0 0 60 60" xml:space="preserve">
<g>
	<rect x="18.2" y="7.3" fill="#FCFCFC" width="24.1" height="7.1"/>
	<rect x="19.9" y="34.1" fill="#FCFCFC" width="20.6" height="17.9"/>
	<path fill="#FCFCFC" d="M51.7,16.3h-2.8h-6.7h-24h-1.7H8.7c-0.5,0-0.9,0.4-0.9,0.9V44c0,0.5,0.4,0.9,0.9,0.9h9.4V34.1v-1.8h1.7
		H40.4H42.1v1.8v10.7h9.4c0.5,0,0.9-0.399,0.9-0.899V17.2C52.5,16.7,52.2,16.3,51.7,16.3z M16.5,27c-0.9,0-1.7-0.8-1.7-1.8
		s0.8-1.8,1.7-1.8s1.7,0.8,1.7,1.8S17.4,27,16.5,27z M21.6,27c-0.9,0-1.7-0.8-1.7-1.8s0.8-1.8,1.7-1.8s1.7,0.8,1.7,1.8
		S22.6,27,21.6,27z"/>
</g>
</svg>
