<?xml version="1.0" encoding="utf-8"?>
<!-- Generator: Adobe Illustrator 16.0.0, SVG Export Plug-In . SVG Version: 6.00 Build 0)  -->
<!DOCTYPE svg PUBLIC "-//W3C//DTD SVG 1.1//EN" "http://www.w3.org/Graphics/SVG/1.1/DTD/svg11.dtd">
<svg version="1.1" id="Layer_1" xmlns="http://www.w3.org/2000/svg" xmlns:xlink="http://www.w3.org/1999/xlink" x="0px" y="0px"
	 width="60px" height="60px" viewBox="0 0 60 60" enable-background="new 0 0 60 60" xml:space="preserve">
<path fill="#FFFFFF" d="M45.7,8.7c-3.5,0-6.3,2.9-6.3,6.5c0,0.6,0.1,1.2,0.3,1.8l-18.4,8c-1.1-2-3.1-3.3-5.4-3.3
	c-3.5,0-6.3,2.9-6.3,6.5c0,3.6,2.8,6.5,6.3,6.5c1.8,0,3.4-0.8,4.6-2.101L32.3,41.4c-0.5,0.899-0.7,1.899-0.7,3
	c0,3.6,2.801,6.5,6.301,6.5s6.3-2.9,6.3-6.5c0-3.601-2.8-6.5-6.3-6.5c-1.801,0-3.5,0.8-4.601,2.199l-11.8-8.8c0.5-0.9,0.8-2,0.8-3.1
	c0-0.6-0.1-1.2-0.3-1.7l18.4-8c1.1,1.9,3.1,3.2,5.399,3.2c3.5,0,6.3-2.9,6.3-6.5C52,11.6,49.2,8.7,45.7,8.7"/>
</svg>
