<?xml version="1.0" encoding="utf-8"?>
<!-- Generator: Adobe Illustrator 16.0.0, SVG Export Plug-In . SVG Version: 6.00 Build 0)  -->
<!DOCTYPE svg PUBLIC "-//W3C//DTD SVG 1.1//EN" "http://www.w3.org/Graphics/SVG/1.1/DTD/svg11.dtd">
<svg version="1.1" id="Layer_1" xmlns="http://www.w3.org/2000/svg" xmlns:xlink="http://www.w3.org/1999/xlink" x="0px" y="0px"
	 width="60px" height="60px" viewBox="0 0 60 60" enable-background="new 0 0 60 60" xml:space="preserve">
<path fill="#FFFFFF" d="M44.4,22.8c0-0.1,0-0.2-0.102-0.3c0-0.1,0-0.1,0-0.2C43.9,21.2,42.9,20.4,41.6,20.4h0.199
	c0,0-5-0.8-11.7-0.8c-6.7,0-11.7,0.8-11.7,0.8h0.2c-1.3,0-2.3,0.8-2.7,1.9c0,0,0,0.1,0,0.2s-0.1,0.2-0.1,0.3c-0.2,1.3-0.5,3.9-0.5,7
	c0,3.101,0.3,5.7,0.5,7c0,0.101,0,0.2,0.1,0.3c0,0.102,0,0.102,0,0.2c0.4,1.101,1.4,1.9,2.7,1.9h-0.3c0,0,5,0.8,11.7,0.8
	s11.7-0.8,11.7-0.8h-0.2c1.2,0,2.3-0.8,2.7-1.9c0-0.1,0-0.1,0-0.2c0-0.1,0.1-0.199,0.1-0.3c0.2-1.3,0.5-3.899,0.5-7
	C44.9,26.7,44.6,24.1,44.4,22.8z M34.5,30.5l-6,4.3C28.4,34.9,28.2,34.9,28.1,34.9s-0.2,0-0.3-0.102c-0.2-0.1-0.4-0.398-0.4-0.6
	v-8.7c0-0.3,0.2-0.5,0.4-0.6c0.2-0.1,0.5-0.1,0.8,0.1l6,4.3c0.2,0.1,0.301,0.4,0.301,0.6C34.7,30.1,34.6,30.3,34.5,30.5z"/>
</svg>
