<?xml version="1.0" encoding="utf-8"?>
<!-- Generator: Adobe Illustrator 16.0.0, SVG Export Plug-In . SVG Version: 6.00 Build 0)  -->
<!DOCTYPE svg PUBLIC "-//W3C//DTD SVG 1.1//EN" "http://www.w3.org/Graphics/SVG/1.1/DTD/svg11.dtd">
<svg version="1.1" id="Layer_1" xmlns="http://www.w3.org/2000/svg" xmlns:xlink="http://www.w3.org/1999/xlink" x="0px" y="0px"
	 width="100px" height="100px" viewBox="0 0 100 100" enable-background="new 0 0 100 100" xml:space="preserve">
<path d="M36.69,39.092h25.596v51.912H36.69V39.092z M30.793,96.9h37.391V33.194H30.793V96.9z"/>
<polygon points="11.313,76.091 23.293,76.091 23.293,96.902 11.414,96.902 "/>
<polygon points="43.547,64.473 55.521,64.473 55.43,85.281 43.547,85.281 "/>
<polygon points="75.671,60.223 87.688,60.223 87.552,96.902 75.671,96.902 "/>
<path d="M3.114,43.643c-0.994,0-1.9-0.452-2.488-1.244C0.13,41.75-0.085,40.932,0.03,40.107c0.112-0.822,0.542-1.552,1.205-2.051
	L47.988,2.373c0.549-0.416,1.206-0.636,1.906-0.636l0.054,0.001c0.044-0.002,0.081-0.004,0.116-0.004
	c0.693,0,1.348,0.223,1.892,0.645l46.76,35.681c1.361,1.037,1.624,2.988,0.587,4.35c-0.604,0.783-1.507,1.229-2.482,1.229
	c-0.682,0-1.328-0.215-1.875-0.63L49.961,8.688L4.994,43.006C4.459,43.417,3.79,43.643,3.114,43.643"/>
</svg>
