<?xml version="1.0" encoding="utf-8"?>
<!-- Generator: Adobe Illustrator 16.0.0, SVG Export Plug-In . SVG Version: 6.00 Build 0)  -->
<!DOCTYPE svg PUBLIC "-//W3C//DTD SVG 1.1//EN" "http://www.w3.org/Graphics/SVG/1.1/DTD/svg11.dtd">
<svg version="1.1" id="Layer_1" xmlns="http://www.w3.org/2000/svg" xmlns:xlink="http://www.w3.org/1999/xlink" x="0px" y="0px"
	 width="100px" height="100px" viewBox="0 0 100 100" enable-background="new 0 0 100 100" xml:space="preserve">
<path fill="currentColor" d="M77.651,42.625c1.867,0,3.386-1.519,3.386-3.388c0-1.864-1.519-3.383-3.386-3.383
	c-1.865,0-3.384,1.519-3.384,3.386C74.268,41.106,75.786,42.625,77.651,42.625"></path>
<path fill="currentColor" d="M77.651,53.461c1.867,0,3.386-1.519,3.386-3.388c0-1.866-1.519-3.383-3.386-3.383
	c-1.865,0-3.384,1.517-3.384,3.384C74.268,51.942,75.786,53.461,77.651,53.461"></path>
<path fill="currentColor" d="M93.905,92.589h-1.712V23.177H84.78v69.412H70.523V3.705C70.523,1.662,68.861,0,66.817,0H18.06
	c-2.044,0-3.706,1.662-3.706,3.705v88.884H3.471V100h90.435c2.042,0,3.705-1.663,3.705-3.704
	C97.61,94.252,95.947,92.589,93.905,92.589 M38.733,92.589H21.764V7.413h16.969V92.589z M63.111,92.589H46.144V7.413h16.967V92.589z
	"></path>
</svg>
